if (_typeface_js && _typeface_js.loadFace) _typeface_js.loadFace({"glyphs":{"S":{"x_min":39.46875,"x_max":532.1875,"ha":583,"o":"m 532 668 l 532 729 b 502 847 532 734 530 787 b 285 972 462 927 385 972 b 69 847 186 972 108 927 b 39 729 40 787 39 734 l 39 668 b 264 427 39 661 50 504 b 396 302 382 384 396 309 l 396 243 b 285 120 396 220 382 120 b 174 243 189 120 174 222 l 174 304 l 39 304 l 39 243 b 69 125 39 237 40 184 b 285 0 108 44 186 0 b 502 125 385 0 462 44 b 532 243 530 184 532 237 l 532 304 b 307 543 532 311 529 466 b 174 668 190 583 175 656 l 174 729 b 285 850 174 750 189 850 b 396 729 382 850 396 751 l 396 668 l 532 668 "},"/":{"x_min":39,"x_max":459.578125,"ha":510,"o":"m 319 972 l 39 0 l 179 0 l 459 972 l 319 972 "},"y":{"x_min":39.46875,"x_max":577.109375,"ha":629,"o":"m 431 972 b 307 666 390 869 348 769 l 185 972 l 39 972 l 240 473 l 240 0 l 375 0 l 375 473 l 577 972 l 431 972 "},"Á":{"x_min":39,"x_max":641,"ha":694,"o":"m 491 1133 l 468 1236 l 192 1138 l 206 1069 l 491 1133 m 503 0 l 641 0 l 436 972 l 243 972 l 39 0 l 176 0 l 240 304 l 439 304 l 503 0 m 266 425 b 340 773 290 543 314 655 l 413 425 l 266 425 "},"g":{"x_min":39.46875,"x_max":532.1875,"ha":583,"o":"m 285 0 b 502 125 385 0 462 44 b 532 243 530 184 532 237 l 532 547 l 307 547 l 307 425 l 396 425 l 396 243 b 285 120 396 220 382 120 b 174 243 189 120 174 222 l 174 729 b 285 850 174 750 189 850 b 396 729 382 850 396 751 l 396 668 l 532 668 l 532 729 b 502 847 532 734 530 787 b 285 972 462 927 385 972 b 69 847 186 972 108 927 b 39 729 40 787 39 734 l 39 243 b 69 125 39 237 40 184 b 285 0 108 44 186 0 "},"–":{"x_min":39.46875,"x_max":645.171875,"ha":699,"o":"m 645 547 l 39 547 l 39 425 l 645 425 l 645 547 "},"ë":{"x_min":39.46875,"x_max":472.3125,"ha":522,"o":"m 231 1119 b 163 1180 231 1152 200 1180 b 95 1119 126 1180 95 1152 b 163 1058 95 1086 126 1058 b 231 1119 200 1058 231 1086 m 409 1119 b 341 1180 409 1152 379 1180 b 274 1119 304 1180 274 1152 b 341 1058 274 1086 304 1058 b 409 1119 379 1058 409 1086 m 472 850 l 472 972 l 39 972 l 39 0 l 472 0 l 472 120 l 174 120 l 174 425 l 396 425 l 396 547 l 174 547 l 174 850 l 472 850 "},"Î":{"x_min":6.8125,"x_max":329.390625,"ha":343,"o":"m 6 1131 l 81 1029 l 168 1094 l 254 1029 l 329 1131 l 168 1254 l 6 1131 m 98 972 l 98 0 l 232 0 l 232 972 l 98 972 "},"e":{"x_min":39.46875,"x_max":472.3125,"ha":522,"o":"m 472 850 l 472 972 l 39 972 l 39 0 l 472 0 l 472 120 l 174 120 l 174 425 l 396 425 l 396 547 l 174 547 l 174 850 l 472 850 "},"J":{"x_min":39.46875,"x_max":532.1875,"ha":583,"o":"m 396 972 l 396 243 b 285 120 396 220 382 120 b 174 243 189 120 174 222 l 174 304 l 39 304 l 39 243 b 69 125 39 237 40 184 b 285 0 108 44 186 0 b 502 125 385 0 462 44 b 532 243 530 184 532 237 l 532 972 l 396 972 "},"ò":{"x_min":39.09375,"x_max":531.8125,"ha":583,"o":"m 285 0 b 501 125 384 0 462 44 b 531 243 530 184 531 237 l 531 729 b 501 847 531 734 530 787 b 285 972 462 927 384 972 b 69 847 186 972 108 927 b 39 729 40 787 39 734 l 39 243 b 69 125 39 237 40 184 b 285 0 108 44 186 0 m 397 243 b 285 120 397 222 380 120 b 175 243 188 120 175 220 l 175 729 b 285 850 175 751 188 850 b 397 729 382 850 397 750 l 397 243 m 418 1068 l 432 1138 l 157 1236 l 134 1133 l 418 1068 "},"^":{"x_min":41,"x_max":549,"ha":601,"o":"m 41 744 l 124 647 l 295 796 l 465 647 l 549 744 l 295 965 l 41 744 "},"D":{"x_min":39.46875,"x_max":532.1875,"ha":583,"o":"m 285 0 b 405 29 291 0 349 1 b 532 243 487 70 532 147 l 532 729 b 502 847 532 734 530 787 b 285 972 462 927 385 972 l 39 972 l 39 0 l 285 0 m 174 850 l 285 850 b 396 729 382 850 396 751 l 396 243 b 280 120 396 179 348 120 l 174 120 l 174 850 "},"ÿ":{"x_min":39.46875,"x_max":577.109375,"ha":629,"o":"m 283 1119 b 215 1180 283 1152 251 1180 b 147 1119 178 1180 147 1152 b 215 1058 147 1086 178 1058 b 283 1119 251 1058 283 1086 m 461 1119 b 393 1180 461 1152 431 1180 b 326 1119 356 1180 326 1152 b 393 1058 326 1086 356 1058 b 461 1119 431 1058 461 1086 m 431 972 b 307 666 390 869 348 769 l 185 972 l 39 972 l 240 473 l 240 0 l 375 0 l 375 473 l 577 972 l 431 972 "},"í":{"x_min":0,"x_max":298.078125,"ha":304,"o":"m 298 1133 l 274 1236 l 0 1138 l 13 1069 l 298 1133 m 73 972 l 73 0 l 208 0 l 208 972 l 73 972 "},"w":{"x_min":39,"x_max":940.0625,"ha":1000,"o":"m 802 972 b 693 286 767 743 729 515 l 563 972 l 416 972 b 305 284 380 743 342 513 l 176 972 l 39 972 l 222 0 l 399 0 b 496 604 431 202 465 401 l 610 0 l 786 0 l 940 972 l 802 972 "},"$":{"x_min":39.46875,"x_max":532.1875,"ha":583,"o":"m 532 669 l 532 730 b 502 848 532 735 530 788 b 353 966 472 909 417 951 l 353 1031 l 217 1031 l 217 966 b 69 848 155 952 99 908 b 39 730 40 790 39 735 l 39 669 b 217 445 39 663 42 526 l 217 142 b 174 244 182 175 174 238 l 174 305 l 39 305 l 39 244 b 70 125 39 238 42 182 b 217 6 99 68 156 22 l 217 -57 l 353 -57 l 353 6 b 502 125 417 22 470 64 b 532 244 530 185 532 238 l 532 305 b 353 529 532 310 529 448 l 353 831 b 396 730 392 798 396 735 l 396 669 l 532 669 m 174 670 l 174 730 b 217 831 174 735 181 798 l 217 594 b 174 670 181 624 174 659 m 396 303 l 396 244 b 353 142 396 238 392 175 l 353 380 b 396 303 385 348 396 308 "},"\\":{"x_min":39,"x_max":460,"ha":510,"o":"m 39 972 l 319 0 l 460 0 l 179 972 l 39 972 "},"Ì":{"x_min":0,"x_max":298.078125,"ha":304,"o":"m 284 1068 l 298 1138 l 23 1236 l 0 1133 l 284 1068 m 73 972 l 73 0 l 208 0 l 208 972 l 73 972 "},"-":{"x_min":39.46875,"x_max":532.1875,"ha":583,"o":"m 532 547 l 39 547 l 39 425 l 532 425 l 532 547 "},"Q":{"x_min":39.6875,"x_max":532.3125,"ha":583,"o":"m 502 847 b 286 972 462 927 385 972 b 69 847 186 972 109 927 b 39 728 41 787 39 734 l 39 242 b 71 124 39 237 42 181 b 224 5 99 67 156 22 l 217 5 l 217 -98 l 354 -98 l 354 5 l 347 5 b 502 124 417 22 471 63 b 532 242 530 184 532 237 l 532 728 b 502 847 532 734 530 787 m 396 242 b 354 141 396 237 392 174 l 354 235 l 217 235 l 217 141 b 174 242 182 174 174 237 l 174 728 b 286 849 174 749 189 849 b 396 728 382 849 396 751 l 396 242 "},"M":{"x_min":39.46875,"x_max":770.390625,"ha":826,"o":"m 588 972 l 404 223 l 221 972 l 39 972 l 39 0 l 174 0 l 174 594 l 319 0 l 488 0 b 634 594 536 200 585 394 l 634 0 l 770 0 l 770 972 l 588 972 "},"C":{"x_min":39.46875,"x_max":532.1875,"ha":583,"o":"m 285 0 b 502 125 385 0 462 44 b 532 243 530 184 532 237 l 532 304 l 396 304 l 396 243 b 285 120 396 220 382 120 b 174 243 189 120 174 222 l 174 729 b 285 850 174 750 189 850 b 396 729 382 850 396 751 l 396 668 l 532 668 l 532 729 b 502 847 532 734 530 787 b 285 972 462 927 385 972 b 69 847 186 972 108 927 b 39 729 40 787 39 734 l 39 243 b 69 125 39 237 40 184 b 285 0 108 44 186 0 "},"!":{"x_min":32.671875,"x_max":155.171875,"ha":218,"o":"m 145 243 l 145 972 l 39 972 l 39 243 l 145 243 m 93 122 b 32 61 61 122 32 94 b 93 0 32 27 61 0 b 155 61 127 0 155 27 b 93 122 155 94 127 122 "},"È":{"x_min":39.09375,"x_max":471.921875,"ha":522,"o":"m 388 1138 l 113 1236 l 90 1133 l 375 1069 l 388 1138 m 471 850 l 471 972 l 39 972 l 39 0 l 471 0 l 471 120 l 173 120 l 173 425 l 395 425 l 395 547 l 173 547 l 173 850 l 471 850 "},"{":{"x_min":41.96875,"x_max":387.6875,"ha":436,"o":"m 267 243 b 218 486 267 362 242 441 b 267 729 242 530 267 609 b 318 833 267 780 285 813 b 383 850 349 850 383 850 l 387 972 b 259 943 380 972 315 970 b 133 729 178 901 133 825 b 92 529 133 611 107 548 l 41 488 l 93 443 b 133 243 107 426 133 362 b 259 29 133 147 178 70 b 387 0 315 1 380 0 l 387 120 b 318 138 387 120 349 122 b 267 243 284 158 267 190 "},"X":{"x_min":39,"x_max":577,"ha":629,"o":"m 577 972 l 431 972 b 307 666 390 869 348 769 l 184 972 l 39 972 l 235 486 l 39 0 l 184 0 l 307 305 l 431 0 l 577 0 l 380 486 l 577 972 "},"ô":{"x_min":39.15625,"x_max":532.0625,"ha":583,"o":"m 285 0 b 502 125 385 0 462 44 b 532 243 530 184 532 237 l 532 729 b 502 847 532 734 530 787 b 285 972 462 927 385 972 b 69 847 186 972 108 927 b 39 729 40 787 39 734 l 39 243 b 69 125 39 237 40 184 b 285 0 108 44 186 0 m 173 729 b 285 850 173 750 188 850 b 395 729 382 850 395 751 l 395 243 b 285 120 395 220 382 120 b 173 243 188 120 173 222 l 173 729 m 123 1131 l 198 1029 l 285 1094 l 371 1029 l 446 1131 l 285 1254 l 123 1131 "},"#":{"x_min":39.46875,"x_max":605.703125,"ha":658,"o":"m 522 769 l 413 769 b 402 577 411 708 405 638 l 277 577 l 288 769 l 178 769 b 167 577 175 708 170 638 l 69 577 l 62 481 l 161 481 l 149 266 l 44 266 l 39 170 l 144 170 l 134 0 l 243 0 b 254 170 246 54 251 116 l 378 170 l 368 0 l 479 0 l 488 170 l 571 170 l 578 266 l 494 266 l 507 481 l 596 481 l 605 577 l 513 577 l 522 769 m 383 266 l 259 266 l 272 481 l 397 481 l 383 266 "},"Ê":{"x_min":39.09375,"x_max":471.921875,"ha":522,"o":"m 86 1131 l 161 1029 l 248 1094 l 334 1029 l 409 1131 l 248 1254 l 86 1131 m 471 850 l 471 972 l 39 972 l 39 0 l 471 0 l 471 120 l 173 120 l 173 425 l 395 425 l 395 547 l 173 547 l 173 850 l 471 850 "},")":{"x_min":39.46875,"x_max":294,"ha":340,"o":"m 39 850 b 157 729 142 850 157 751 l 157 243 b 39 120 157 220 142 120 l 39 0 b 264 125 144 0 224 44 b 294 243 292 184 294 237 l 294 729 b 264 847 294 734 292 787 b 39 972 224 927 144 972 l 39 850 "},"ø":{"x_min":39.46875,"x_max":532.1875,"ha":583,"o":"m 502 847 b 285 972 462 927 385 972 b 69 847 186 972 108 927 b 39 729 40 787 39 734 l 39 243 b 69 125 39 237 40 184 b 285 0 108 44 186 0 b 502 125 385 0 462 44 b 532 243 530 184 532 237 l 532 729 b 502 847 532 734 530 787 m 190 795 b 285 850 210 833 239 850 b 330 841 304 850 321 847 b 174 387 279 688 225 540 l 174 729 b 190 795 174 730 175 768 m 381 176 b 285 120 360 138 332 120 b 227 134 264 120 245 126 l 396 616 l 396 243 b 381 176 396 241 396 204 "},"â":{"x_min":39,"x_max":641,"ha":694,"o":"m 176 1131 l 251 1029 l 338 1094 l 424 1029 l 499 1131 l 338 1254 l 176 1131 m 503 0 l 641 0 l 436 972 l 243 972 l 39 0 l 176 0 l 240 304 l 439 304 l 503 0 m 266 425 b 340 773 290 543 314 655 l 413 425 l 266 425 "},"}":{"x_min":39.3125,"x_max":385.03125,"ha":436,"o":"m 159 243 b 108 138 159 191 141 158 b 43 120 77 122 43 120 l 39 0 b 167 29 46 0 111 1 b 293 243 248 70 293 147 b 333 443 293 362 319 426 l 385 488 l 334 529 b 293 729 319 548 293 611 b 167 943 293 825 248 901 b 39 972 111 970 46 972 l 39 850 b 108 833 39 850 77 850 b 159 729 142 813 159 781 b 208 486 159 609 184 530 b 159 243 184 441 159 362 "},"Ä":{"x_min":39,"x_max":640.625,"ha":694,"o":"m 318 1119 b 249 1180 318 1152 286 1180 b 181 1119 213 1180 181 1152 b 249 1058 181 1086 213 1058 b 318 1119 286 1058 318 1086 m 496 1119 b 428 1180 496 1152 466 1180 b 361 1119 391 1180 361 1152 b 428 1058 361 1086 391 1058 b 496 1119 466 1058 496 1086 m 503 0 l 640 0 l 436 972 l 243 972 l 39 0 l 176 0 l 240 304 l 439 304 l 503 0 m 266 425 b 339 773 290 543 313 655 l 413 425 l 266 425 "},"a":{"x_min":39,"x_max":641,"ha":694,"o":"m 503 0 l 641 0 l 436 972 l 243 972 l 39 0 l 176 0 l 240 304 l 439 304 l 503 0 m 266 425 b 340 773 290 543 314 655 l 413 425 l 266 425 "},"=":{"x_min":39.46875,"x_max":592.078125,"ha":644,"o":"m 39 698 l 39 577 l 592 577 l 592 698 l 39 698 m 39 273 l 592 273 l 592 394 l 39 394 l 39 273 "},"N":{"x_min":39.46875,"x_max":532.1875,"ha":583,"o":"m 532 972 l 396 972 l 396 361 l 202 972 l 39 972 l 39 0 l 174 0 l 174 611 l 367 0 l 532 0 l 532 972 "},"ú":{"x_min":39.1875,"x_max":532.078125,"ha":583,"o":"m 285 0 b 502 125 385 0 462 44 b 532 243 530 184 532 237 l 532 972 l 395 972 l 395 243 b 285 120 395 220 382 120 b 173 243 188 120 173 222 l 173 972 l 39 972 l 39 243 b 69 125 39 237 40 184 b 285 0 108 44 186 0 m 436 1133 l 413 1236 l 138 1138 l 152 1069 l 436 1133 "},"2":{"x_min":39.46875,"x_max":472.3125,"ha":522,"o":"m 472 120 l 157 120 b 303 381 157 122 156 231 b 472 686 468 550 472 672 l 472 741 b 447 851 472 747 472 795 b 255 972 413 929 344 972 b 63 851 167 972 99 929 b 39 741 39 795 39 747 l 39 686 l 174 686 l 174 741 b 255 850 174 754 181 850 b 337 741 330 850 337 754 l 337 681 b 208 468 332 658 313 575 b 39 120 40 297 39 129 l 39 0 l 472 0 l 472 120 "},"ü":{"x_min":39.46875,"x_max":532.1875,"ha":583,"o":"m 285 0 b 502 125 385 0 462 44 b 532 243 530 184 532 237 l 532 972 l 396 972 l 396 243 b 285 120 396 220 382 120 b 174 243 189 120 174 222 l 174 972 l 39 972 l 39 243 b 69 125 39 237 40 184 b 285 0 108 44 186 0 "},"Z":{"x_min":39.1875,"x_max":531.921875,"ha":583,"o":"m 531 972 l 39 972 l 39 850 l 390 850 l 39 133 l 39 0 l 531 0 l 531 120 l 180 120 l 531 838 l 531 972 "},"u":{"x_min":39.46875,"x_max":532.1875,"ha":583,"o":"m 285 0 b 502 125 385 0 462 44 b 532 243 530 184 532 237 l 532 972 l 396 972 l 396 243 b 285 120 396 220 382 120 b 174 243 189 120 174 222 l 174 972 l 39 972 l 39 243 b 69 125 39 237 40 184 b 285 0 108 44 186 0 "},"Ó":{"x_min":39.1875,"x_max":532.078125,"ha":583,"o":"m 285 0 b 502 125 385 0 462 44 b 532 243 530 184 532 237 l 532 729 b 502 847 532 734 530 787 b 285 972 462 927 385 972 b 69 847 186 972 108 927 b 39 729 40 787 39 734 l 39 243 b 69 125 39 237 40 184 b 285 0 108 44 186 0 m 173 729 b 285 850 173 750 188 850 b 395 729 382 850 395 751 l 395 243 b 285 120 395 220 382 120 b 173 243 188 120 173 222 l 173 729 m 436 1133 l 413 1236 l 138 1138 l 152 1069 l 436 1133 "},"k":{"x_min":39.46875,"x_max":582.5625,"ha":636,"o":"m 174 286 b 221 362 187 311 206 337 l 430 0 l 582 0 b 302 486 491 159 393 326 l 582 972 l 424 972 l 174 540 l 174 972 l 39 972 l 39 0 l 174 0 l 174 286 "},"Ù":{"x_min":39.09375,"x_max":531.8125,"ha":583,"o":"m 285 0 b 501 125 384 0 462 44 b 531 243 530 184 531 237 l 531 972 l 397 972 l 397 243 b 285 120 397 222 380 120 b 175 243 188 120 175 220 l 175 972 l 39 972 l 39 243 b 69 125 39 237 40 184 b 285 0 108 44 186 0 m 418 1068 l 432 1138 l 157 1236 l 134 1133 l 418 1068 "},"Ÿ":{"x_min":39.46875,"x_max":577.109375,"ha":629,"o":"m 283 1119 b 215 1180 283 1152 251 1180 b 147 1119 178 1180 147 1152 b 215 1058 147 1086 178 1058 b 283 1119 251 1058 283 1086 m 461 1119 b 393 1180 461 1152 431 1180 b 326 1119 356 1180 326 1152 b 393 1058 326 1086 356 1058 b 461 1119 431 1058 461 1086 m 431 972 b 307 666 390 869 348 769 l 185 972 l 39 972 l 240 473 l 240 0 l 375 0 l 375 473 l 577 972 l 431 972 "},"€":{"x_min":39.46875,"x_max":592.078125,"ha":644,"o":"m 592 668 l 592 729 b 562 847 592 734 590 787 b 345 972 522 927 445 972 b 129 847 246 972 168 926 b 99 729 100 788 99 734 l 99 637 l 39 637 l 39 516 l 99 516 l 99 455 l 39 455 l 39 334 l 99 334 l 99 243 b 129 125 99 237 100 183 b 345 0 168 45 246 0 b 562 125 445 0 522 44 b 592 243 590 184 592 237 l 592 304 l 455 304 l 455 243 b 345 120 455 223 441 120 b 234 243 247 120 234 223 l 234 334 l 412 334 l 412 455 l 234 455 l 234 516 l 412 516 l 412 637 l 234 637 l 234 729 b 345 850 234 748 246 850 b 455 729 442 850 455 748 l 455 668 l 592 668 "},"ß":{"x_min":40.09375,"x_max":532.8125,"ha":583,"o":"m 430 498 b 502 698 470 540 502 604 b 260 972 502 970 266 972 l 40 972 l 40 0 l 174 0 l 174 850 l 271 850 b 368 698 301 850 368 804 b 268 545 368 588 295 545 l 252 545 l 252 425 l 286 425 b 396 273 319 425 396 391 b 344 141 396 208 380 163 b 290 122 321 125 298 123 b 282 120 285 122 283 120 l 248 120 l 248 0 l 286 0 b 532 273 290 0 532 0 b 430 498 532 394 481 461 "},"é":{"x_min":39.09375,"x_max":471.921875,"ha":522,"o":"m 388 1133 l 365 1236 l 90 1138 l 104 1069 l 388 1133 m 471 850 l 471 972 l 39 972 l 39 0 l 471 0 l 471 120 l 173 120 l 173 425 l 395 425 l 395 547 l 173 547 l 173 850 l 471 850 "},"s":{"x_min":-36.75,"x_max":455.96875,"ha":583,"o":"m 455 668 l 455 729 b 426 847 455 734 454 787 b 209 972 386 927 308 972 b -6 847 110 972 32 927 b -36 729 -35 787 -36 734 l -36 668 b 187 427 -36 661 -25 504 b 319 302 306 384 319 309 l 319 243 b 209 120 319 220 306 120 b 98 243 112 120 98 222 l 98 304 l -36 304 l -36 243 b -6 125 -36 237 -35 184 b 209 0 32 44 110 0 b 426 125 308 0 386 44 b 455 243 454 184 455 237 l 455 304 b 231 543 455 311 453 466 b 98 668 114 583 99 656 l 98 729 b 209 850 98 750 112 850 b 319 729 306 850 319 751 l 319 668 l 455 668 "},"B":{"x_min":40.359375,"x_max":533.078125,"ha":583,"o":"m 286 0 b 533 273 290 0 533 0 b 431 498 533 391 480 461 b 503 698 467 540 503 608 b 260 972 503 970 266 972 l 40 972 l 40 0 l 286 0 m 175 425 l 286 425 b 342 406 286 425 313 422 b 396 273 377 384 396 338 b 345 141 396 208 380 163 b 290 122 322 125 298 123 b 282 120 285 122 284 120 l 175 120 l 175 425 m 175 850 l 260 850 b 368 698 294 850 368 813 b 260 547 368 583 294 547 l 175 547 l 175 850 "},"?":{"x_min":39.46875,"x_max":472.3125,"ha":522,"o":"m 447 851 b 255 972 413 929 344 972 b 63 851 167 972 99 929 b 39 741 39 795 39 747 l 39 686 l 174 686 l 174 741 b 255 850 174 751 181 850 b 337 741 330 850 337 751 l 337 686 b 298 590 337 684 334 627 b 187 334 189 479 187 340 l 187 243 l 323 243 l 323 334 b 393 504 323 334 325 434 b 472 686 470 583 472 675 l 472 741 b 447 851 472 747 472 795 m 246 122 b 185 61 213 122 185 94 b 246 0 185 27 213 0 b 307 61 280 0 307 27 b 246 122 307 94 280 122 "},"H":{"x_min":39.46875,"x_max":532.1875,"ha":583,"o":"m 396 972 l 396 547 l 174 547 l 174 972 l 39 972 l 39 0 l 174 0 l 174 425 l 396 425 l 396 0 l 532 0 l 532 972 l 396 972 "},"î":{"x_min":6.8125,"x_max":329.390625,"ha":343,"o":"m 6 1131 l 81 1029 l 168 1094 l 254 1029 l 329 1131 l 168 1254 l 6 1131 m 98 972 l 98 0 l 232 0 l 232 972 l 98 972 "},"c":{"x_min":39.46875,"x_max":532.1875,"ha":583,"o":"m 285 0 b 502 125 385 0 462 44 b 532 243 530 184 532 237 l 532 304 l 396 304 l 396 243 b 285 120 396 220 382 120 b 174 243 189 120 174 222 l 174 729 b 285 850 174 750 189 850 b 396 729 382 850 396 751 l 396 668 l 532 668 l 532 729 b 502 847 532 734 530 787 b 285 972 462 927 385 972 b 69 847 186 972 108 927 b 39 729 40 787 39 734 l 39 243 b 69 125 39 237 40 184 b 285 0 108 44 186 0 "},"•":{"x_min":39.46875,"x_max":234.109375,"ha":279,"o":"m 234 486 b 137 577 234 536 190 577 b 39 486 83 577 39 536 b 137 394 39 436 83 394 b 234 486 190 394 234 436 "},"(":{"x_min":39.46875,"x_max":294,"ha":340,"o":"m 294 120 b 174 243 190 120 174 222 l 174 729 b 294 850 174 750 190 850 l 294 972 b 69 847 189 972 108 927 b 39 729 40 787 39 734 l 39 243 b 69 125 39 237 40 184 b 294 0 108 44 189 0 l 294 120 "},"U":{"x_min":39.46875,"x_max":532.1875,"ha":583,"o":"m 285 0 b 502 125 385 0 462 44 b 532 243 530 184 532 237 l 532 972 l 396 972 l 396 243 b 285 120 396 220 382 120 b 174 243 189 120 174 222 l 174 972 l 39 972 l 39 243 b 69 125 39 237 40 184 b 285 0 108 44 186 0 "},"F":{"x_min":39.46875,"x_max":472.3125,"ha":522,"o":"m 472 850 l 472 972 l 39 972 l 39 0 l 174 0 l 174 425 l 396 425 l 396 547 l 174 547 l 174 850 l 472 850 "},":":{"x_min":39.46875,"x_max":161.96875,"ha":218,"o":"m 100 122 b 39 61 68 122 39 94 b 100 0 39 27 68 0 b 161 61 134 0 161 27 b 100 122 161 94 134 122 m 100 547 b 39 486 68 547 39 519 b 100 425 39 452 68 425 b 161 486 134 425 161 452 b 100 547 161 519 134 547 "},"Û":{"x_min":39.15625,"x_max":532.0625,"ha":583,"o":"m 285 0 b 502 125 385 0 462 44 b 532 243 530 184 532 237 l 532 972 l 395 972 l 395 243 b 285 120 395 220 382 120 b 173 243 188 120 173 222 l 173 972 l 39 972 l 39 243 b 69 125 39 237 40 184 b 285 0 108 44 186 0 m 123 1131 l 198 1029 l 285 1094 l 371 1029 l 446 1131 l 285 1254 l 123 1131 "},"*":{"x_min":40.828125,"x_max":450.53125,"ha":501,"o":"m 409 904 b 298 845 375 887 333 863 l 298 972 l 194 972 l 194 845 l 81 904 l 40 820 l 174 752 l 76 641 l 148 576 l 245 690 l 341 576 l 416 641 b 319 752 385 679 351 715 l 450 820 l 409 904 "},"†":{"x_min":39.46875,"x_max":532.1875,"ha":583,"o":"m 532 729 l 353 729 l 353 972 l 217 972 l 217 729 l 39 729 l 39 606 l 217 606 l 217 0 l 353 0 l 353 606 l 532 606 l 532 729 "},"V":{"x_min":39,"x_max":640.609375,"ha":694,"o":"m 503 972 l 339 200 l 176 972 l 39 972 l 243 0 l 436 0 l 640 972 l 503 972 "},"0":{"x_min":39.46875,"x_max":472.3125,"ha":522,"o":"m 255 0 b 449 129 347 0 413 45 b 472 243 472 183 472 237 l 472 729 b 449 843 472 734 470 788 b 255 972 413 926 347 972 b 62 843 164 972 96 926 b 39 729 39 788 39 734 l 39 243 b 62 129 39 237 39 183 b 255 0 96 45 164 0 m 255 850 b 337 729 307 850 337 786 l 337 243 b 322 175 337 243 336 208 b 255 120 303 127 276 120 b 174 237 190 120 174 213 l 174 729 b 189 797 174 729 175 763 b 255 850 208 844 235 850 "},"@":{"x_min":39.46875,"x_max":1008.578125,"ha":1069,"o":"m 524 972 b 39 486 257 972 39 754 b 524 0 39 218 257 0 b 1008 486 790 0 1008 218 b 524 972 1008 754 790 972 m 524 120 b 174 486 330 120 174 284 b 524 849 174 687 330 849 b 872 486 717 849 872 687 b 524 120 872 284 717 120 m 605 701 b 494 729 571 719 537 729 b 247 486 359 729 247 619 b 494 243 247 351 359 243 b 605 269 537 243 571 251 l 605 243 l 740 243 l 740 729 l 605 729 l 605 701 m 494 363 b 383 486 432 363 383 419 b 494 606 383 552 432 606 b 605 486 555 606 605 552 b 494 363 605 419 555 363 "},"ö":{"x_min":39.46875,"x_max":532.1875,"ha":583,"o":"m 285 0 b 502 125 385 0 462 44 b 532 243 530 184 532 237 l 532 729 b 502 847 532 734 530 787 b 285 972 462 927 385 972 b 69 847 186 972 108 927 b 39 729 40 787 39 734 l 39 243 b 69 125 39 237 40 184 b 285 0 108 44 186 0 m 174 729 b 285 850 174 750 189 850 b 396 729 382 850 396 751 l 396 243 b 285 120 396 220 382 120 b 174 243 189 120 174 222 l 174 729 m 261 1119 b 193 1180 261 1152 230 1180 b 125 1119 156 1180 125 1152 b 193 1058 125 1086 156 1058 b 261 1119 230 1058 261 1086 m 439 1119 b 371 1180 439 1152 409 1180 b 304 1119 334 1180 304 1152 b 371 1058 304 1086 334 1058 b 439 1119 409 1058 439 1086 "},"i":{"x_min":39.46875,"x_max":174.21875,"ha":218,"o":"m 39 972 l 39 0 l 174 0 l 174 972 l 39 972 "},"]":{"x_min":39.46875,"x_max":294,"ha":340,"o":"m 39 120 l 39 0 l 294 0 l 294 972 l 39 972 l 39 850 l 157 850 l 157 120 l 39 120 "},"m":{"x_min":39.46875,"x_max":770.390625,"ha":826,"o":"m 588 972 l 404 223 l 221 972 l 39 972 l 39 0 l 174 0 l 174 594 l 319 0 l 488 0 b 634 594 536 200 585 394 l 634 0 l 770 0 l 770 972 l 588 972 "},"8":{"x_min":39.125,"x_max":472.875,"ha":522,"o":"m 472 686 l 472 741 b 448 851 472 747 472 795 b 256 972 414 929 344 972 b 63 851 167 972 99 929 b 39 741 39 795 39 747 l 39 686 b 105 515 39 677 44 580 b 39 334 45 444 39 341 l 39 243 b 62 129 39 237 39 183 b 256 0 96 45 164 0 b 449 129 347 0 414 45 b 472 243 471 183 472 237 l 472 334 b 406 515 472 341 466 444 b 472 686 466 580 472 677 m 174 741 b 256 850 174 756 183 850 b 337 741 331 850 337 754 l 337 686 b 256 577 337 659 321 577 b 174 686 180 577 174 675 l 174 741 m 337 243 b 256 120 337 186 307 120 b 174 237 190 120 174 213 l 174 333 b 256 455 174 344 180 455 b 337 338 322 455 337 359 l 337 243 "},"R":{"x_min":39.359375,"x_max":532.078125,"ha":583,"o":"m 449 488 b 532 698 492 530 532 595 b 285 972 532 972 289 972 l 39 972 l 39 0 l 174 0 l 174 425 l 285 425 b 395 304 344 425 395 359 l 395 0 l 532 0 l 532 304 b 449 488 532 380 502 444 m 285 547 l 174 547 l 174 850 l 285 850 b 341 831 285 850 311 850 b 395 698 378 809 395 766 b 285 547 395 580 318 547 "},"á":{"x_min":39,"x_max":641,"ha":694,"o":"m 491 1133 l 468 1236 l 192 1138 l 206 1069 l 491 1133 m 503 0 l 641 0 l 436 972 l 243 972 l 39 0 l 176 0 l 240 304 l 439 304 l 503 0 m 266 425 b 340 773 290 543 314 655 l 413 425 l 266 425 "},"o":{"x_min":39.46875,"x_max":532.1875,"ha":583,"o":"m 285 0 b 502 125 385 0 462 44 b 532 243 530 184 532 237 l 532 729 b 502 847 532 734 530 787 b 285 972 462 927 385 972 b 69 847 186 972 108 927 b 39 729 40 787 39 734 l 39 243 b 69 125 39 237 40 184 b 285 0 108 44 186 0 m 174 729 b 285 850 174 750 189 850 b 396 729 382 850 396 751 l 396 243 b 285 120 396 220 382 120 b 174 243 189 120 174 222 l 174 729 "},"5":{"x_min":39.46875,"x_max":472.3125,"ha":522,"o":"m 449 448 b 255 577 415 531 347 577 l 204 575 l 204 850 l 412 850 l 412 972 l 69 972 l 69 444 b 257 455 129 447 197 455 b 337 338 322 455 337 359 l 337 243 b 322 175 337 243 336 208 b 255 120 303 127 276 120 b 174 237 190 120 174 213 l 174 334 l 39 334 l 39 243 b 62 129 39 237 39 183 b 255 0 96 45 164 0 b 449 129 347 0 413 45 b 472 243 470 183 472 237 l 472 334 b 449 448 472 340 472 393 "},"7":{"x_min":39,"x_max":484.078125,"ha":535,"o":"m 39 0 l 181 0 l 484 840 l 484 972 l 51 972 l 51 850 l 345 850 l 39 0 "},"K":{"x_min":39.46875,"x_max":582.5625,"ha":636,"o":"m 174 286 b 221 362 187 311 206 337 l 430 0 l 582 0 b 302 486 491 159 393 326 l 582 972 l 424 972 l 174 540 l 174 972 l 39 972 l 39 0 l 174 0 l 174 286 "},",":{"x_min":39,"x_max":205.0625,"ha":251,"o":"m 97 70 l 39 -101 l 108 -105 l 205 70 l 97 70 "},"d":{"x_min":39.46875,"x_max":532.1875,"ha":583,"o":"m 285 0 b 405 29 291 0 349 1 b 532 243 487 70 532 147 l 532 729 b 502 847 532 734 530 787 b 285 972 462 927 385 972 l 39 972 l 39 0 l 285 0 m 174 850 l 285 850 b 396 729 382 850 396 751 l 396 243 b 280 120 396 179 348 120 l 174 120 l 174 850 "},"E":{"x_min":39.46875,"x_max":472.3125,"ha":522,"o":"m 472 850 l 472 972 l 39 972 l 39 0 l 472 0 l 472 120 l 174 120 l 174 425 l 396 425 l 396 547 l 174 547 l 174 850 l 472 850 "},"Y":{"x_min":39.46875,"x_max":577.109375,"ha":629,"o":"m 431 972 b 307 666 390 869 348 769 l 185 972 l 39 972 l 240 473 l 240 0 l 375 0 l 375 473 l 577 972 l 431 972 "},"Ô":{"x_min":39.15625,"x_max":532.0625,"ha":583,"o":"m 285 0 b 502 125 385 0 462 44 b 532 243 530 184 532 237 l 532 729 b 502 847 532 734 530 787 b 285 972 462 927 385 972 b 69 847 186 972 108 927 b 39 729 40 787 39 734 l 39 243 b 69 125 39 237 40 184 b 285 0 108 44 186 0 m 173 729 b 285 850 173 750 188 850 b 395 729 382 850 395 751 l 395 243 b 285 120 395 220 382 120 b 173 243 188 120 173 222 l 173 729 m 123 1131 l 198 1029 l 285 1094 l 371 1029 l 446 1131 l 285 1254 l 123 1131 "},"\"":{"x_min":39,"x_max":368.1875,"ha":417,"o":"m 60 972 l 39 775 l 131 775 l 203 972 l 60 972 m 225 972 l 203 775 l 296 775 l 368 972 l 225 972 "},"Ï":{"x_min":6.8125,"x_max":321.21875,"ha":335,"o":"m 142 1119 b 74 1180 142 1152 111 1180 b 6 1119 38 1180 6 1152 b 74 1058 6 1086 38 1058 b 142 1119 111 1058 142 1086 m 321 1119 b 253 1180 321 1152 291 1180 b 186 1119 216 1180 186 1152 b 253 1058 186 1086 216 1058 b 321 1119 291 1058 321 1086 m 96 972 l 96 0 l 231 0 l 231 972 l 96 972 "},"ê":{"x_min":39.09375,"x_max":471.921875,"ha":522,"o":"m 86 1131 l 161 1029 l 248 1094 l 334 1029 l 409 1131 l 248 1254 l 86 1131 m 471 850 l 471 972 l 39 972 l 39 0 l 471 0 l 471 120 l 173 120 l 173 425 l 395 425 l 395 547 l 173 547 l 173 850 l 471 850 "},"Â":{"x_min":39,"x_max":641,"ha":694,"o":"m 176 1131 l 251 1029 l 338 1094 l 424 1029 l 499 1131 l 338 1254 l 176 1131 m 503 0 l 641 0 l 436 972 l 243 972 l 39 0 l 176 0 l 240 304 l 439 304 l 503 0 m 266 425 b 340 773 290 543 314 655 l 413 425 l 266 425 "},"Í":{"x_min":0,"x_max":298.078125,"ha":304,"o":"m 298 1133 l 274 1236 l 0 1138 l 13 1069 l 298 1133 m 73 972 l 73 0 l 208 0 l 208 972 l 73 972 "},"ì":{"x_min":0,"x_max":298.078125,"ha":304,"o":"m 284 1068 l 298 1138 l 23 1236 l 0 1133 l 284 1068 m 73 972 l 73 0 l 208 0 l 208 972 l 73 972 "},"|":{"x_min":39.46875,"x_max":174.21875,"ha":218,"o":"m 39 1041 l 39 -75 l 174 -75 l 174 1041 l 39 1041 "},"Ú":{"x_min":39.1875,"x_max":532.078125,"ha":583,"o":"m 285 0 b 502 125 385 0 462 44 b 532 243 530 184 532 237 l 532 972 l 395 972 l 395 243 b 285 120 395 220 382 120 b 173 243 188 120 173 222 l 173 972 l 39 972 l 39 243 b 69 125 39 237 40 184 b 285 0 108 44 186 0 m 436 1133 l 413 1236 l 138 1138 l 152 1069 l 436 1133 "},"Ý":{"x_min":39.46875,"x_max":577.109375,"ha":629,"o":"m 453 1133 l 430 1236 l 155 1138 l 168 1069 l 453 1133 m 431 972 b 307 666 390 869 348 769 l 185 972 l 39 972 l 240 473 l 240 0 l 375 0 l 375 473 l 577 972 l 431 972 "},"b":{"x_min":40.359375,"x_max":533.078125,"ha":583,"o":"m 286 0 b 533 273 290 0 533 0 b 431 498 533 391 480 461 b 503 698 467 540 503 608 b 260 972 503 970 266 972 l 40 972 l 40 0 l 286 0 m 175 425 l 286 425 b 342 406 286 425 313 422 b 396 273 377 384 396 338 b 345 141 396 208 380 163 b 290 122 322 125 298 123 b 282 120 285 122 284 120 l 175 120 l 175 425 m 175 850 l 260 850 b 368 698 294 850 368 813 b 260 547 368 583 294 547 l 175 547 l 175 850 "},"q":{"x_min":39.6875,"x_max":532.3125,"ha":583,"o":"m 502 847 b 286 972 462 927 385 972 b 69 847 186 972 109 927 b 39 728 41 787 39 734 l 39 242 b 71 124 39 237 42 181 b 224 5 99 67 156 22 l 217 5 l 217 -98 l 354 -98 l 354 5 l 347 5 b 502 124 417 22 471 63 b 532 242 530 184 532 237 l 532 728 b 502 847 532 734 530 787 m 396 242 b 354 141 396 237 392 174 l 354 235 l 217 235 l 217 141 b 174 242 182 174 174 237 l 174 728 b 286 849 174 749 189 849 b 396 728 382 849 396 751 l 396 242 "},"Ö":{"x_min":39.46875,"x_max":532.1875,"ha":583,"o":"m 285 0 b 502 125 385 0 462 44 b 532 243 530 184 532 237 l 532 729 b 502 847 532 734 530 787 b 285 972 462 927 385 972 b 69 847 186 972 108 927 b 39 729 40 787 39 734 l 39 243 b 69 125 39 237 40 184 b 285 0 108 44 186 0 m 174 729 b 285 850 174 750 189 850 b 396 729 382 850 396 751 l 396 243 b 285 120 396 220 382 120 b 174 243 189 120 174 222 l 174 729 m 261 1119 b 193 1180 261 1152 230 1180 b 125 1119 156 1180 125 1152 b 193 1058 125 1086 156 1058 b 261 1119 230 1058 261 1086 m 439 1119 b 371 1180 439 1152 409 1180 b 304 1119 334 1180 304 1152 b 371 1058 304 1086 334 1058 b 439 1119 409 1058 439 1086 "},"z":{"x_min":39.1875,"x_max":531.921875,"ha":583,"o":"m 531 972 l 39 972 l 39 850 l 390 850 l 39 133 l 39 0 l 531 0 l 531 120 l 180 120 l 531 838 l 531 972 "},"É":{"x_min":39.09375,"x_max":471.921875,"ha":522,"o":"m 388 1133 l 365 1236 l 90 1138 l 104 1069 l 388 1133 m 471 850 l 471 972 l 39 972 l 39 0 l 471 0 l 471 120 l 173 120 l 173 425 l 395 425 l 395 547 l 173 547 l 173 850 l 471 850 "},"¡":{"x_min":39.46875,"x_max":174.21875,"ha":218,"o":"m 107 851 b 174 911 144 851 174 877 b 107 972 174 944 144 972 b 39 911 70 972 39 944 b 107 851 39 877 70 851 m 39 695 l 39 31 l 110 -2 l 145 33 l 145 729 l 72 729 l 39 695 "},"[":{"x_min":39.46875,"x_max":294,"ha":340,"o":"m 294 850 l 294 972 l 39 972 l 39 0 l 294 0 l 294 120 l 174 120 l 174 850 l 294 850 "},"L":{"x_min":39.46875,"x_max":412.421875,"ha":461,"o":"m 174 120 l 174 972 l 39 972 l 39 0 l 412 0 l 412 120 l 174 120 "}," ":{"x_min":0,"x_max":0,"ha":418},"%":{"x_min":55.5625,"x_max":868.140625,"ha":943,"o":"m 323 -1 l 742 970 l 600 970 l 179 -1 l 323 -1 m 691 1 b 534 108 620 1 564 38 b 514 204 515 151 514 200 l 514 251 b 534 348 514 256 515 305 b 691 455 564 418 620 455 b 849 348 763 455 819 418 b 868 251 868 305 868 256 l 868 204 b 849 108 868 200 868 151 b 691 1 819 38 763 1 m 617 204 b 629 155 617 202 617 180 b 691 122 640 131 659 122 b 753 155 725 122 741 131 b 766 204 764 181 766 202 l 766 251 b 760 288 766 254 766 276 b 691 334 744 320 725 334 b 629 301 659 334 640 325 b 617 251 617 275 617 254 l 617 204 m 232 516 b 74 623 163 516 105 559 b 55 719 59 663 55 715 l 55 766 b 75 863 55 772 56 820 b 232 970 105 931 161 970 b 390 863 303 970 359 933 b 409 766 408 816 409 772 l 409 719 b 389 623 409 715 408 669 b 232 516 359 554 303 516 m 157 719 b 171 670 157 718 159 695 b 232 637 182 647 201 637 b 293 670 263 637 282 647 b 307 719 306 695 307 718 l 307 766 b 293 816 307 769 306 790 b 232 850 282 840 263 850 b 171 816 201 850 182 840 b 157 766 159 790 157 769 l 157 719 "},"P":{"x_min":39.46875,"x_max":532.1875,"ha":583,"o":"m 409 937 b 285 972 352 970 292 972 l 39 972 l 39 0 l 174 0 l 174 425 l 285 425 b 532 698 291 425 532 426 b 409 937 532 834 464 904 m 344 566 b 285 547 314 548 287 547 l 174 547 l 174 850 l 285 850 b 341 831 285 850 311 850 b 396 698 378 809 396 766 b 344 566 396 633 379 588 "},"À":{"x_min":39,"x_max":641,"ha":694,"o":"m 473 1068 l 487 1138 l 211 1236 l 188 1133 l 473 1068 m 503 0 l 641 0 l 436 972 l 243 972 l 39 0 l 176 0 l 240 304 l 439 304 l 503 0 m 266 425 b 340 773 290 543 314 655 l 413 425 l 266 425 "},"_":{"x_min":39.46875,"x_max":532.1875,"ha":583,"o":"m 532 122 l 39 122 l 39 0 l 532 0 l 532 122 "},"+":{"x_min":39.46875,"x_max":532.1875,"ha":583,"o":"m 532 547 l 353 547 l 353 729 l 217 729 l 217 547 l 39 547 l 39 425 l 217 425 l 217 243 l 353 243 l 353 425 l 532 425 l 532 547 "},"Ë":{"x_min":39.46875,"x_max":472.3125,"ha":522,"o":"m 231 1119 b 163 1180 231 1152 200 1180 b 95 1119 126 1180 95 1152 b 163 1058 95 1086 126 1058 b 231 1119 200 1058 231 1086 m 409 1119 b 341 1180 409 1152 379 1180 b 274 1119 304 1180 274 1152 b 341 1058 274 1086 304 1058 b 409 1119 379 1058 409 1086 m 472 850 l 472 972 l 39 972 l 39 0 l 472 0 l 472 120 l 174 120 l 174 425 l 396 425 l 396 547 l 174 547 l 174 850 l 472 850 "},"'":{"x_min":39,"x_max":203.6875,"ha":249,"o":"m 60 972 l 39 775 l 131 775 l 203 972 l 60 972 "},"Œ":{"x_min":39.46875,"x_max":770.390625,"ha":826,"o":"m 770 850 l 770 972 l 285 972 b 69 847 186 972 108 927 b 39 729 40 787 39 734 l 39 243 b 69 125 39 237 40 184 b 285 0 108 44 186 0 l 770 0 l 770 120 l 442 120 l 442 425 l 680 425 l 680 547 l 442 547 l 442 850 l 770 850 m 307 120 l 285 120 b 174 243 189 120 174 222 l 174 729 b 285 850 174 750 189 850 l 307 850 l 307 120 "},"T":{"x_min":39.46875,"x_max":532.1875,"ha":583,"o":"m 532 972 l 39 972 l 39 850 l 217 850 l 217 0 l 353 0 l 353 850 l 532 850 l 532 972 "},"j":{"x_min":39.46875,"x_max":532.1875,"ha":583,"o":"m 396 972 l 396 243 b 285 120 396 220 382 120 b 174 243 189 120 174 222 l 174 304 l 39 304 l 39 243 b 69 125 39 237 40 184 b 285 0 108 44 186 0 b 502 125 385 0 462 44 b 532 243 530 184 532 237 l 532 972 l 396 972 "},"1":{"x_min":40.828125,"x_max":340.28125,"ha":388,"o":"m 178 971 l 40 796 l 141 716 l 205 794 l 205 0 l 340 0 l 340 971 l 178 971 "},"ä":{"x_min":39,"x_max":640.625,"ha":694,"o":"m 318 1119 b 249 1180 318 1152 286 1180 b 181 1119 213 1180 181 1152 b 249 1058 181 1086 213 1058 b 318 1119 286 1058 318 1086 m 496 1119 b 428 1180 496 1152 466 1180 b 361 1119 391 1180 361 1152 b 428 1058 361 1086 391 1058 b 496 1119 466 1058 496 1086 m 503 0 l 640 0 l 436 972 l 243 972 l 39 0 l 176 0 l 240 304 l 439 304 l 503 0 m 266 425 b 339 773 290 543 313 655 l 413 425 l 266 425 "},"<":{"x_min":42,"x_max":416,"ha":467,"o":"m 414 719 l 320 806 l 42 486 l 320 167 l 416 254 b 213 486 350 330 278 410 l 414 719 "},"t":{"x_min":39.46875,"x_max":532.1875,"ha":583,"o":"m 532 972 l 39 972 l 39 850 l 217 850 l 217 0 l 353 0 l 353 850 l 532 850 l 532 972 "},"ù":{"x_min":39.09375,"x_max":531.8125,"ha":583,"o":"m 285 0 b 501 125 384 0 462 44 b 531 243 530 184 531 237 l 531 972 l 397 972 l 397 243 b 285 120 397 222 380 120 b 175 243 188 120 175 220 l 175 972 l 39 972 l 39 243 b 69 125 39 237 40 184 b 285 0 108 44 186 0 m 418 1068 l 432 1138 l 157 1236 l 134 1133 l 418 1068 "},"W":{"x_min":39,"x_max":940.0625,"ha":1000,"o":"m 802 972 b 693 286 767 743 729 515 l 563 972 l 416 972 b 305 284 380 743 342 513 l 176 972 l 39 972 l 222 0 l 399 0 b 496 604 431 202 465 401 l 610 0 l 786 0 l 940 972 l 802 972 "},"ï":{"x_min":6.8125,"x_max":321.21875,"ha":335,"o":"m 142 1119 b 74 1180 142 1152 111 1180 b 6 1119 38 1180 6 1152 b 74 1058 6 1086 38 1058 b 142 1119 111 1058 142 1086 m 321 1119 b 253 1180 321 1152 291 1180 b 186 1119 216 1180 186 1152 b 253 1058 186 1086 216 1058 b 321 1119 291 1058 321 1086 m 96 972 l 96 0 l 231 0 l 231 972 l 96 972 "},">":{"x_min":41,"x_max":415,"ha":467,"o":"m 41 718 b 243 486 106 642 178 562 l 41 254 l 136 167 l 415 486 l 136 805 l 41 718 "},"v":{"x_min":39,"x_max":640.609375,"ha":694,"o":"m 503 972 l 339 200 l 176 972 l 39 972 l 243 0 l 436 0 l 640 972 l 503 972 "},"û":{"x_min":39.15625,"x_max":532.0625,"ha":583,"o":"m 285 0 b 502 125 385 0 462 44 b 532 243 530 184 532 237 l 532 972 l 395 972 l 395 243 b 285 120 395 220 382 120 b 173 243 188 120 173 222 l 173 972 l 39 972 l 39 243 b 69 125 39 237 40 184 b 285 0 108 44 186 0 m 123 1131 l 198 1029 l 285 1094 l 371 1029 l 446 1131 l 285 1254 l 123 1131 "},"Ò":{"x_min":39.09375,"x_max":531.8125,"ha":583,"o":"m 285 0 b 501 125 384 0 462 44 b 531 243 530 184 531 237 l 531 729 b 501 847 531 734 530 787 b 285 972 462 927 384 972 b 69 847 186 972 108 927 b 39 729 40 787 39 734 l 39 243 b 69 125 39 237 40 184 b 285 0 108 44 186 0 m 397 243 b 285 120 397 222 380 120 b 175 243 188 120 175 220 l 175 729 b 285 850 175 751 188 850 b 397 729 382 850 397 750 l 397 243 m 418 1068 l 432 1138 l 157 1236 l 134 1133 l 418 1068 "},"&":{"x_min":39.328125,"x_max":706.28125,"ha":761,"o":"m 706 606 l 451 606 l 451 486 l 511 486 l 511 301 b 342 120 511 202 436 120 b 174 301 250 120 174 202 b 351 481 174 401 254 481 l 351 604 b 229 727 284 604 229 658 b 342 850 229 795 280 850 b 455 727 405 850 455 795 l 591 727 b 342 972 591 862 480 972 b 95 727 206 972 95 862 b 171 551 95 659 125 597 b 39 301 92 494 39 404 b 342 0 39 134 175 0 b 647 301 510 0 647 134 l 647 486 l 706 486 l 706 606 "},"I":{"x_min":39.46875,"x_max":174.21875,"ha":218,"o":"m 39 972 l 39 0 l 174 0 l 174 972 l 39 972 "},"Ð":{"x_min":39.46875,"x_max":622.03125,"ha":675,"o":"m 592 847 b 375 972 552 927 475 972 l 129 972 l 129 547 l 39 547 l 39 425 l 129 425 l 129 0 l 375 0 b 495 29 381 0 439 1 b 622 243 577 70 622 147 l 622 729 b 592 847 622 734 620 787 m 485 243 b 370 120 485 191 476 120 l 264 120 l 264 425 l 353 425 l 353 547 l 264 547 l 264 850 l 375 850 b 469 795 420 850 450 833 b 485 729 484 768 485 730 l 485 243 "},"G":{"x_min":39.46875,"x_max":532.1875,"ha":583,"o":"m 285 0 b 502 125 385 0 462 44 b 532 243 530 184 532 237 l 532 547 l 307 547 l 307 425 l 396 425 l 396 243 b 285 120 396 220 382 120 b 174 243 189 120 174 222 l 174 729 b 285 850 174 750 189 850 b 396 729 382 850 396 751 l 396 668 l 532 668 l 532 729 b 502 847 532 734 530 787 b 285 972 462 927 385 972 b 69 847 186 972 108 927 b 39 729 40 787 39 734 l 39 243 b 69 125 39 237 40 184 b 285 0 108 44 186 0 "},"r":{"x_min":39.359375,"x_max":532.078125,"ha":583,"o":"m 449 488 b 532 698 492 530 532 595 b 285 972 532 972 289 972 l 39 972 l 39 0 l 174 0 l 174 425 l 285 425 b 395 304 344 425 395 359 l 395 0 l 532 0 l 532 304 b 449 488 532 380 502 444 m 285 547 l 174 547 l 174 850 l 285 850 b 341 831 285 850 311 850 b 395 698 378 809 395 766 b 285 547 395 580 318 547 "},"¿":{"x_min":39.46875,"x_max":472.3125,"ha":522,"o":"m 63 120 b 255 0 98 43 167 0 b 447 120 344 0 412 43 b 472 230 472 176 472 225 l 472 286 l 337 286 l 337 230 b 255 122 337 220 330 122 b 174 230 181 122 174 220 l 174 286 b 213 381 174 287 176 344 b 323 637 322 493 323 631 l 323 729 l 187 729 l 187 637 b 118 468 187 637 186 537 b 39 286 40 388 39 297 l 39 230 b 63 120 39 225 39 176 m 255 851 b 323 911 292 851 323 877 b 255 972 323 944 292 972 b 187 911 219 972 187 944 b 255 851 187 877 219 851 "},"ý":{"x_min":39.46875,"x_max":577.109375,"ha":629,"o":"m 453 1133 l 430 1236 l 155 1138 l 168 1069 l 453 1133 m 431 972 b 307 666 390 869 348 769 l 185 972 l 39 972 l 240 473 l 240 0 l 375 0 l 375 473 l 577 972 l 431 972 "},"x":{"x_min":39,"x_max":577,"ha":629,"o":"m 577 972 l 431 972 b 307 666 390 869 348 769 l 184 972 l 39 972 l 235 486 l 39 0 l 184 0 l 307 305 l 431 0 l 577 0 l 380 486 l 577 972 "},"º":{"x_min":39.46875,"x_max":386.5625,"ha":435,"o":"m 366 876 b 212 972 338 938 284 972 b 59 876 142 972 87 936 b 39 790 40 833 39 794 l 39 744 b 59 658 39 740 40 701 b 212 562 87 598 142 562 b 366 658 283 562 338 598 b 386 744 385 701 386 740 l 386 790 b 366 876 386 794 386 831 m 276 744 b 265 697 276 744 274 720 b 212 658 254 670 238 658 b 160 695 187 658 172 670 b 149 745 151 715 149 743 l 149 790 b 160 837 149 790 151 813 b 212 876 171 863 187 876 b 265 838 236 876 253 863 b 274 795 272 829 273 806 b 276 788 274 793 276 790 l 276 744 "},"è":{"x_min":39.09375,"x_max":471.921875,"ha":522,"o":"m 388 1138 l 113 1236 l 90 1133 l 375 1069 l 388 1138 m 471 850 l 471 972 l 39 972 l 39 0 l 471 0 l 471 120 l 173 120 l 173 425 l 395 425 l 395 547 l 173 547 l 173 850 l 471 850 "},"Ø":{"x_min":39.46875,"x_max":532.1875,"ha":583,"o":"m 502 847 b 285 972 462 927 385 972 b 69 847 186 972 108 927 b 39 729 40 787 39 734 l 39 243 b 69 125 39 237 40 184 b 285 0 108 44 186 0 b 502 125 385 0 462 44 b 532 243 530 184 532 237 l 532 729 b 502 847 532 734 530 787 m 190 795 b 285 850 210 833 239 850 b 330 841 304 850 321 847 b 174 387 279 688 225 540 l 174 729 b 190 795 174 730 175 768 m 381 176 b 285 120 360 138 332 120 b 227 134 264 120 245 126 l 396 616 l 396 243 b 381 176 396 241 396 204 "},"h":{"x_min":39.46875,"x_max":532.1875,"ha":583,"o":"m 396 972 l 396 547 l 174 547 l 174 972 l 39 972 l 39 0 l 174 0 l 174 425 l 396 425 l 396 0 l 532 0 l 532 972 l 396 972 "},".":{"x_min":39.46875,"x_max":161.96875,"ha":218,"o":"m 100 122 b 39 61 68 122 39 94 b 100 0 39 27 68 0 b 161 61 134 0 161 27 b 100 122 161 94 134 122 "},";":{"x_min":39,"x_max":205.0625,"ha":251,"o":"m 97 70 l 39 -101 l 108 -105 l 205 70 l 97 70 m 100 547 b 39 486 67 547 39 519 b 100 425 39 452 67 425 b 161 486 134 425 161 452 b 100 547 161 519 134 547 "},"f":{"x_min":39.46875,"x_max":472.3125,"ha":522,"o":"m 472 850 l 472 972 l 39 972 l 39 0 l 174 0 l 174 425 l 396 425 l 396 547 l 174 547 l 174 850 l 472 850 "},"A":{"x_min":39,"x_max":641,"ha":694,"o":"m 503 0 l 641 0 l 436 972 l 243 972 l 39 0 l 176 0 l 240 304 l 439 304 l 503 0 m 266 425 b 340 773 290 543 314 655 l 413 425 l 266 425 "},"6":{"x_min":39.46875,"x_max":472.3125,"ha":522,"o":"m 62 129 b 255 0 96 46 164 0 b 449 129 347 0 413 46 b 472 243 470 183 472 237 l 472 334 b 449 448 472 340 472 393 b 255 578 415 532 347 578 b 174 562 227 578 197 572 l 174 726 b 172 734 174 726 172 729 b 255 850 172 758 189 850 b 337 733 323 850 337 754 l 472 733 b 449 843 472 734 472 789 b 255 972 413 926 347 972 b 62 843 164 972 96 926 b 39 729 39 789 39 734 l 39 243 b 62 129 39 237 39 183 m 174 333 b 255 455 174 344 181 455 b 337 339 322 455 337 359 l 337 243 b 255 121 337 186 307 121 b 174 237 190 121 174 214 l 174 333 "},"O":{"x_min":39.46875,"x_max":532.1875,"ha":583,"o":"m 285 0 b 502 125 385 0 462 44 b 532 243 530 184 532 237 l 532 729 b 502 847 532 734 530 787 b 285 972 462 927 385 972 b 69 847 186 972 108 927 b 39 729 40 787 39 734 l 39 243 b 69 125 39 237 40 184 b 285 0 108 44 186 0 m 174 729 b 285 850 174 750 189 850 b 396 729 382 850 396 751 l 396 243 b 285 120 396 220 382 120 b 174 243 189 120 174 222 l 174 729 "},"n":{"x_min":39.46875,"x_max":532.1875,"ha":583,"o":"m 532 972 l 396 972 l 396 361 l 202 972 l 39 972 l 39 0 l 174 0 l 174 611 l 367 0 l 532 0 l 532 972 "},"3":{"x_min":40.046875,"x_max":472.875,"ha":522,"o":"m 472 686 l 472 741 b 448 851 472 747 472 795 b 256 972 414 929 344 972 b 64 851 168 972 99 929 b 40 741 40 795 40 747 l 40 686 l 174 686 l 174 741 b 256 850 174 756 184 850 b 338 741 331 850 338 754 l 338 686 b 256 577 338 659 321 577 l 188 577 l 188 455 l 256 455 b 338 338 323 455 338 359 l 338 243 b 256 120 338 186 308 120 b 174 237 191 120 174 213 l 174 334 l 40 334 l 40 243 b 63 129 40 237 40 183 b 256 0 97 45 165 0 b 449 129 347 0 414 45 b 472 243 471 183 472 237 l 472 334 b 406 515 472 341 466 444 b 472 686 466 580 472 677 "},"9":{"x_min":39.46875,"x_max":472.3125,"ha":522,"o":"m 449 842 b 255 971 415 925 347 971 b 62 842 164 971 96 925 b 39 728 39 788 39 734 l 39 637 b 62 523 39 631 39 578 b 255 393 96 439 164 393 b 337 409 284 393 314 399 l 337 242 b 255 120 337 185 307 120 b 174 237 190 120 174 213 l 174 242 l 39 242 b 62 128 39 237 39 182 b 255 0 96 45 164 0 b 449 128 347 0 413 45 b 472 242 470 182 472 237 l 472 728 b 449 842 472 734 472 788 m 337 638 b 255 516 337 627 330 516 b 174 631 191 516 174 607 l 174 725 b 172 734 174 725 172 728 b 255 849 172 757 189 849 b 337 732 323 849 337 753 l 337 638 "},"l":{"x_min":39.46875,"x_max":412.421875,"ha":461,"o":"m 174 120 l 174 972 l 39 972 l 39 0 l 412 0 l 412 120 l 174 120 "},"4":{"x_min":39.46875,"x_max":472.3125,"ha":522,"o":"m 412 394 l 412 972 l 235 972 l 39 405 l 39 273 l 277 273 l 277 0 l 412 0 l 412 273 l 472 273 l 472 394 l 412 394 m 277 394 l 178 394 b 277 680 210 491 243 583 l 277 394 "},"p":{"x_min":39.46875,"x_max":532.1875,"ha":583,"o":"m 409 937 b 285 972 352 970 292 972 l 39 972 l 39 0 l 174 0 l 174 425 l 285 425 b 532 698 291 425 532 426 b 409 937 532 834 464 904 m 344 566 b 285 547 314 548 287 547 l 174 547 l 174 850 l 285 850 b 341 831 285 850 311 850 b 396 698 378 809 396 766 b 344 566 396 633 379 588 "},"‡":{"x_min":39.46875,"x_max":532.1875,"ha":583,"o":"m 532 606 l 532 729 l 353 729 l 353 972 l 217 972 l 217 729 l 39 729 l 39 606 l 217 606 l 217 363 l 39 363 l 39 243 l 217 243 l 217 0 l 353 0 l 353 243 l 532 243 l 532 363 l 353 363 l 353 606 l 532 606 "},"Ü":{"x_min":39.46875,"x_max":532.1875,"ha":583,"o":"m 285 0 b 502 125 385 0 462 44 b 532 243 530 184 532 237 l 532 972 l 396 972 l 396 243 b 285 120 396 220 382 120 b 174 243 189 120 174 222 l 174 972 l 39 972 l 39 243 b 69 125 39 237 40 184 b 285 0 108 44 186 0 "},"à":{"x_min":39,"x_max":641,"ha":694,"o":"m 473 1068 l 487 1138 l 211 1236 l 188 1133 l 473 1068 m 503 0 l 641 0 l 436 972 l 243 972 l 39 0 l 176 0 l 240 304 l 439 304 l 503 0 m 266 425 b 340 773 290 543 314 655 l 413 425 l 266 425 "},"ó":{"x_min":39.1875,"x_max":532.078125,"ha":583,"o":"m 285 0 b 502 125 385 0 462 44 b 532 243 530 184 532 237 l 532 729 b 502 847 532 734 530 787 b 285 972 462 927 385 972 b 69 847 186 972 108 927 b 39 729 40 787 39 734 l 39 243 b 69 125 39 237 40 184 b 285 0 108 44 186 0 m 173 729 b 285 850 173 750 188 850 b 395 729 382 850 395 751 l 395 243 b 285 120 395 220 382 120 b 173 243 188 120 173 222 l 173 729 m 436 1133 l 413 1236 l 138 1138 l 152 1069 l 436 1133 "}}}
